# xmcd CD database file
#
# Track frame offsets:
#	150
#	40495
#	101167
#	123605
#	153805
#
# Disc length: 2608 seconds
#
# Revision: 0
# Processed by: cddbd v1.5PL3 Copyright (c) Steve Scherf et al.
# Submitted via: CDex 1.51
#
DISCID=3d0a2e05
DTITLE=森山威男 - 虹の彼方に
DYEAR=1994
DGENRE=Jazz
TTITLE0=虹の彼方に
TTITLE1=わたらせ
TTITLE2=見上げてごらん夜の星を
TTITLE3=グッドバイ
TTITLE4=虹の彼方に(2)
EXTD=YEAR: 1994
EXTT0=
EXTT1=
EXTT2=
EXTT3=
EXTT4=
PLAYORDER=
